<svg id="Line_expand" height="512" viewBox="0 0 512 512" width="512" xmlns="http://www.w3.org/2000/svg" data-name="Line expand"><g id="_04_copy_3" data-name="04 copy 3"><g><path d="m288 208h16v16h-16z"/><path d="m320 168h16v16h-16z"/><path d="m344 200h16v16h-16z"/></g><path d="m311.55 144.738a20 20 0 0 1 33.456 0l60.056 91.647 13.382-8.77-60.055-91.647a35.892 35.892 0 0 0 -30.11-16.268 35.9 35.9 0 0 0 -30.111 16.268l-32.858 50.143 13.382 8.77z"/><g><path d="m144 208h16v16h-16z"/><path d="m176 168h16v16h-16z"/><path d="m200 200h16v16h-16z"/><path d="m488 320h-19.06c17.142-12.832 27.06-29.7 27.06-48a51.382 51.382 0 0 0 -5.864-23.655 8 8 0 0 0 -14.233 0c-5.328 10.376-15.521 19.6-29.187 26.573a48.768 48.768 0 0 0 -6.18-13.591l-11.606-17.712-13.383 8.77 11.606 17.715a32.476 32.476 0 0 1 1.385 33.707 29.967 29.967 0 0 1 -26.338 16.193h-17.9v-72a8 8 0 0 0 -8-8h-93.739l-68.172-104.032a35.892 35.892 0 0 0 -30.11-16.268 35.9 35.9 0 0 0 -30.111 16.268l-18.118 27.647 13.383 8.77 18.117-27.647a20 20 0 0 1 33.456 0l82.147 125.362a32.476 32.476 0 0 1 1.385 33.707 29.967 29.967 0 0 1 -26.338 16.193h-17.9v-72a8 8 0 0 0 -8-8h-96a8 8 0 0 0 -8 8v72h-17.944a29.97 29.97 0 0 1 -26.338-16.2 32.479 32.479 0 0 1 1.382-33.7l53.545-81.712-13.383-8.77-53.541 81.709a48.773 48.773 0 0 0 -6.249 13.838c-13.912-7-24.283-16.32-29.675-26.82a8 8 0 0 0 -14.233 0 51.382 51.382 0 0 0 -5.864 23.655c0 18.3 9.918 35.168 27.06 48h-19.06a8 8 0 0 0 -8 8v12a28.032 28.032 0 0 0 28 28h12v24a8 8 0 0 0 8 8h328v-16h-320v-16h360v16h-24v16h32a8 8 0 0 0 8-8v-24h20a28.032 28.032 0 0 0 28-28v-12a8 8 0 0 0 -8-8zm-45.385-8.591a49.065 49.065 0 0 0 5.765-19.566c12.8-5.711 23.543-13.167 31.561-21.818q.059.986.059 1.975c0 18.982-16.536 36.8-42.478 47.055a49.252 49.252 0 0 0 5.093-7.646zm-146.079-50.082-3.491-5.327h75.255v64h-75.564a49.12 49.12 0 0 0 3.8-58.673zm-152.236-5.327h80v64h-80zm-112.3 16q0-.988.059-1.975c8.141 8.781 19.087 16.331 32.141 22.075a49.39 49.39 0 0 0 11.1 27.276c-26.416-10.203-43.3-28.195-43.3-47.376zm448 68a12.013 12.013 0 0 1 -12 12h-424a12.013 12.013 0 0 1 -12-12v-4h448z"/></g></g></svg>