<svg id="Layer_1" enable-background="new 0 0 512 512" height="512" viewBox="0 0 512 512" width="512" xmlns="http://www.w3.org/2000/svg"><g><g><path d="m452.301 247.683c-2.528-3.28-7.236-3.891-10.519-1.361-3.28 2.529-3.89 7.239-1.36 10.519l4.961 6.435c1.478 1.917 3.698 2.921 5.945 2.921 1.598 0 3.209-.509 4.573-1.561 3.28-2.529 3.89-7.239 1.36-10.519z"/><path d="m251.947 144.697c-3.283-2.531-7.992-1.919-10.52 1.361l-4.96 6.435c-2.528 3.28-1.919 7.99 1.361 10.519 1.364 1.052 2.976 1.561 4.573 1.561 2.247 0 4.469-1.005 5.946-2.922l4.96-6.435c2.53-3.281 1.921-7.99-1.36-10.519z"/><path d="m282.011 173.638c-.043 0-.085 0-.127.001-4.142.068-7.443 3.481-7.375 7.623l.142 8.561c.067 4.1 3.412 7.376 7.496 7.376.042 0 .085 0 .127-.001 4.142-.068 7.443-3.481 7.375-7.623l-.142-8.561c-.068-4.099-3.412-7.376-7.496-7.376z"/><path d="m329.533 247.683c-2.528-3.28-7.238-3.891-10.519-1.362s-3.891 7.238-1.362 10.519l4.96 6.435c1.478 1.917 3.699 2.922 5.946 2.922 1.598 0 3.209-.509 4.572-1.56 3.281-2.529 3.891-7.238 1.362-10.519z"/><path d="m127.542 163.977c2.247 0 4.469-1.005 5.946-2.922l4.96-6.435c2.528-3.28 1.919-7.99-1.361-10.519-3.283-2.531-7.992-1.919-10.52 1.361l-4.96 6.435c-2.528 3.28-1.919 7.99 1.361 10.519 1.365 1.052 2.976 1.561 4.574 1.561z"/><path d="m158.946 199.04 6.065-6.038c2.936-2.922 2.946-7.671.024-10.607-2.925-2.937-7.674-2.945-10.606-.024l-6.065 6.038c-2.936 2.922-2.946 7.671-.024 10.607 1.466 1.472 3.391 2.208 5.315 2.208 1.914.001 3.828-.727 5.291-2.184z"/><path d="m52.866 255.182v8.561c0 4.142 3.357 7.5 7.5 7.5s7.5-3.358 7.5-7.5v-8.561c0-4.142-3.357-7.5-7.5-7.5s-7.5 3.358-7.5 7.5z"/><path d="m106.01 201.423c1.598 0 3.209-.509 4.573-1.561 3.28-2.529 3.89-7.238 1.361-10.519l-4.96-6.435c-2.528-3.28-7.237-3.892-10.52-1.361-3.28 2.529-3.89 7.238-1.361 10.519l4.96 6.435c1.478 1.917 3.7 2.922 5.947 2.922z"/><path d="m205.79 266.197c1.598 0 3.209-.509 4.573-1.561 3.28-2.529 3.89-7.239 1.36-10.519l-4.961-6.435c-2.528-3.28-7.235-3.891-10.519-1.361-3.28 2.529-3.89 7.239-1.36 10.519l4.961 6.435c1.478 1.917 3.699 2.922 5.946 2.922z"/><path d="m374.717 144.697c-3.28-2.529-7.989-1.919-10.519 1.36l-4.961 6.435c-2.529 3.281-1.92 7.99 1.36 10.519 1.364 1.052 2.975 1.561 4.573 1.561 2.246 0 4.468-1.005 5.945-2.921l4.961-6.435c2.53-3.28 1.921-7.99-1.359-10.519z"/><path d="m404.651 173.639c-4.142.069-7.443 3.482-7.374 7.624l.143 8.561c.068 4.099 3.412 7.375 7.496 7.375.043 0 .085 0 .128-.001 4.142-.069 7.443-3.482 7.374-7.624l-.143-8.561c-.068-4.142-3.511-7.402-7.624-7.374z"/><path d="m499.482 307.098h-9.821c1.859-2.302 3.553-4.85 5.061-7.643 12.483-23.119 9.443-57.191-7.395-82.858l-55.59-84.733c-13.438-20.459-32.746-32.191-52.98-32.191-.004 0-.01 0-.014 0-20.229.005-39.527 11.74-52.948 32.196l-8.409 12.825-8.417-12.83c-13.438-20.459-32.746-32.191-52.98-32.191-.004 0-.01 0-.014 0-20.229.005-39.528 11.74-52.949 32.196l-8.409 12.825-8.417-12.83c-13.437-20.458-32.743-32.191-52.97-32.191-20.226 0-39.532 11.733-52.973 32.196l-16.243 24.775c-2.271 3.464-1.304 8.113 2.16 10.384 3.465 2.271 8.112 1.304 10.385-2.16l16.239-24.771c10.77-16.396 25.128-25.425 40.432-25.425 15.305 0 29.663 9.03 40.431 25.422l55.587 84.729c15.552 23.707 15.161 51.904 6.737 67.504-3.638 6.738-10.606 14.769-23.143 14.769h-36.692v-74.056c0-9.403-7.649-17.053-17.053-17.053h-51.732c-9.403 0-17.053 7.65-17.053 17.053v74.056h-36.692c-12.558 0-19.532-8.041-23.172-14.786-8.418-15.599-8.798-43.789 6.767-67.49l20.324-31.012c2.271-3.464 1.303-8.113-2.161-10.384-3.464-2.269-8.113-1.302-10.384 2.162l-20.32 31.006c-16.85 25.656-19.903 59.722-7.427 82.842 1.511 2.8 3.21 5.354 5.074 7.662h-9.832c-6.886.002-12.489 5.617-12.489 12.519v35.094c0 6.902 5.603 12.518 12.489 12.518h20.194v32.611c0 6.887 5.603 12.489 12.489 12.489h73.105c6.902 0 12.518-5.603 12.518-12.489v-32.611h108.919c4.143 0 7.5-3.358 7.5-7.5s-3.357-7.5-7.5-7.5h-224.714v-30.129h482v30.129h-222.646c-4.143 0-7.5 3.358-7.5 7.5s3.357 7.5 7.5 7.5h106.85v32.611c0 6.887 5.603 12.489 12.489 12.489h73.105c6.902 0 12.518-5.603 12.518-12.489v-32.611h20.166c6.902 0 12.518-5.615 12.518-12.518v-35.094c0-6.902-5.615-12.517-12.518-12.517zm-451.798 60.129h68.112v30.101h-68.112zm113.466-60.129h-55.838v-74.056c0-1.132.921-2.053 2.053-2.053h51.732c1.112 0 2.053.94 2.053 2.053zm122.769 0h-39.795c1.859-2.302 3.553-4.85 5.061-7.642 10.262-19.006 10.025-45.411.264-68.466h32.417c1.112 0 2.053.94 2.053 2.053zm74.836-14.77c-3.638 6.738-10.606 14.77-23.144 14.77h-36.692v-74.056c0-9.403-7.649-17.053-17.053-17.053h-40.475l-37.803-57.621 11.981-18.273c10.753-16.39 25.104-25.418 40.41-25.422h.01c15.312 0 29.674 9.03 40.441 25.422l55.586 84.729c15.553 23.707 15.163 51.904 6.739 67.504zm47.933 14.77h-39.795c1.859-2.302 3.553-4.85 5.061-7.643 10.262-19.006 10.024-45.411.263-68.466h32.417c1.112 0 2.053.94 2.053 2.053v74.056zm74.835-14.77c-3.638 6.738-10.606 14.77-23.144 14.77h-36.692v-74.056c0-9.403-7.649-17.053-17.053-17.053h-40.474l-37.802-57.621 11.981-18.273c10.753-16.39 25.104-25.418 40.409-25.422h.011c15.311 0 29.673 9.03 40.44 25.422l55.587 84.729c15.552 23.708 15.161 51.904 6.737 67.504zm-17.207 104.999h-68.112v-30.101h68.112z"/></g></g></svg>